<svg xmlns="http://www.w3.org/2000/svg" width="47.942" height="47.942" viewBox="0 0 47.942 47.942">
  <g id="icon3" transform="translate(-132.362 -126.578)">
    <rect id="Rectangle_285" data-name="Rectangle 285" width="47.942" height="47.942" transform="translate(132.362 126.578)" fill="none"/>
    <path id="Path_1613" data-name="Path 1613" d="M180,140.142a.806.806,0,0,0-1.134.122l-.507.631-1.255-1.014,1.011-1.257a3.226,3.226,0,1,0-5.025-4.047s-2.449,3.039-5.573,6.918v-8.87a4.045,4.045,0,0,0-4.045-4.046h-18a4.651,4.651,0,0,0-3.293,1.364l-8.858,8.858a3.3,3.3,0,0,0-.964,2.328V169.28a4.046,4.046,0,0,0,4.045,4.046h27.068a4.045,4.045,0,0,0,4.045-4.046v-17.5l8.576-10.649,1.245,1.026-7.578,9.411a.806.806,0,1,0,1.255,1.011l9.108-11.308a.8.8,0,0,0-.123-1.131Zm-36.454-9.3v6.481a2.45,2.45,0,0,1-2.447,2.447h-6.48Zm22.373,38.441a2.45,2.45,0,0,1-2.447,2.447H136.406a2.449,2.449,0,0,1-2.447-2.447V141.362H141.1a4.045,4.045,0,0,0,4.051-4.043v-7.141H163.48a2.45,2.45,0,0,1,2.447,2.447v10.855l-6.019,7.474H139.553a.8.8,0,1,0,0,1.6h19.061l-2.574,3.2H139.553a.8.8,0,0,0,0,1.6h15.212c-2.432,3.075-3.339,5.943-2.878,7.409l-.459.57c-2.213-.057-2.638-.754-3-1.378a2.156,2.156,0,0,0-.994-1.038c-1.3-.551-2.242.668-2.934,1.56-.13.167-.307.4-.454.575-.047-.243-.09-.537-.123-.763-.218-1.488-.554-3.743-2.506-3.743-1.416,0-2.663,1.866-2.663,4a.8.8,0,1,0,1.6,0c0-1.52.806-2.4,1.065-2.4.574,0,.787,1.433.927,2.379.174,1.185.356,2.412,1.451,2.412.826,0,1.408-.752,1.971-1.48.264-.34.812-1.049,1.036-1.072a1.852,1.852,0,0,1,.242.367c.609,1.06,1.525,2.191,4.654,2.191a.981.981,0,0,0,.751-.3l.693-.86c1.559.142,4.234-1.4,6.755-4.531l6.019-7.474Zm-7.277-9.051c-2.369,2.942-4.55,3.961-5.268,3.97-.144-.7.386-3.051,2.756-5.993l9.109-11.311,2.506,2.026Zm10.12-12.566-2.506-2.022,8.1-10.05a1.613,1.613,0,0,1,2.513,2.022Zm-18.818-11.892a.8.8,0,0,1,.8-.8h9.588a.8.8,0,1,1,0,1.6h-9.588a.8.8,0,0,1-.8-.8Zm-11.187,11.187a.8.8,0,0,1,.8-.8h20.775a.8.8,0,1,1,0,1.6h-20.78a.8.8,0,0,1-.8-.8Z" transform="translate(0 -0.91)" fill="#673718"/>
    <path id="Path_1614" data-name="Path 1614" d="M328.061,177.783l-2.506-2.022,8.1-10.05a1.613,1.613,0,1,1,2.513,2.022Z" transform="translate(-159.296 -31.032)" fill="#d42b45"/>
    <path id="Path_1615" data-name="Path 1615" d="M257.535,246.134c-2.369,2.942-4.551,3.961-5.268,3.97-.144-.7.386-3.051,2.756-5.993l9.109-11.311,2.506,2.026Z" transform="translate(-98.854 -86.848)" fill="#d42b45"/>
  </g>
</svg>
