<svg xmlns="http://www.w3.org/2000/svg" width="46" height="43.718" viewBox="0 0 46 43.718">
  <g id="icon6" transform="translate(-368 -130)">
    <path id="Path_1619" data-name="Path 1619" d="M372.826,131h27.739a3.826,3.826,0,0,1,3.826,3.826v22a3.826,3.826,0,0,1-3.826,3.826H383.058l-6.675,6.907a.956.956,0,0,1-1.644-.665v-6.242h-1.913A3.826,3.826,0,0,1,369,156.826v-22A3.826,3.826,0,0,1,372.826,131Z" fill="none" stroke="#683818" stroke-linejoin="round" stroke-width="2"/>
    <path id="Path_1620" data-name="Path 1620" d="M388,163.174A3.826,3.826,0,0,0,391.826,167h8.609l6.019,6.019a.956.956,0,0,0,1.633-.676V167H410a3.826,3.826,0,0,0,3.826-3.826V148.826A3.826,3.826,0,0,0,410,145h-2.87" transform="translate(-0.826 -0.609)" fill="none" stroke="#683818" stroke-linejoin="round" stroke-width="2"/>
    <path id="Path_1621" data-name="Path 1621" d="M398,147.321v-2.64c0-.487-.394-1.072-.881-1.072H395.73a.806.806,0,0,1-.837-.522,4.574,4.574,0,0,0-.327-.735.854.854,0,0,1,.152-1.01l1-.991a.873.873,0,0,0,0-1.236l-1.87-1.871a.88.88,0,0,0-1.244,0l-1,1a.9.9,0,0,1-1.025.157,6.677,6.677,0,0,0-.664-.315.815.815,0,0,1-.517-.836v-1.37c0-.486-.585-.881-1.071-.881h-2.64c-.486,0-1.071.4-1.071.881v1.369a.815.815,0,0,1-.519.837,7.352,7.352,0,0,0-.711.313.86.86,0,0,1-1-.158l-.99-1a.871.871,0,0,0-1.238,0l-1.868,1.87a.879.879,0,0,0,0,1.241l1,1.015a.888.888,0,0,1,.151,1.032,4.036,4.036,0,0,0-.328.689.807.807,0,0,1-.837.522h-1.4c-.486,0-.88.585-.88,1.072v2.64c0,.486.393,1.07.88,1.07h1.39a.813.813,0,0,1,.84.526,4.184,4.184,0,0,0,.322.693.839.839,0,0,1-.161,1l-.979.961a.872.872,0,0,0,0,1.241l1.863,1.857a.88.88,0,0,0,1.244,0l1-1a.9.9,0,0,1,1.024-.159,6.727,6.727,0,0,0,.662.311.814.814,0,0,1,.52.837v1.466c0,.486.584.88,1.07.88h2.64c.486,0,1.072-.394,1.072-.88v-1.467a.814.814,0,0,1,.518-.836,7.483,7.483,0,0,0,.711-.314.86.86,0,0,1,1,.158l.99,1a.873.873,0,0,0,1.239,0L395.7,152.8a.88.88,0,0,0,0-1.248l-.974-.961a.873.873,0,0,1-.163-1.03,3.7,3.7,0,0,0,.32-.643.813.813,0,0,1,.84-.526h1.39C397.606,148.391,398,147.807,398,147.321Z" transform="translate(-0.304 -0.174)" fill="none" stroke="#d42b45" stroke-linejoin="round" stroke-width="2"/>
    <circle id="Ellipse_206" data-name="Ellipse 206" cx="3.5" cy="3.5" r="3.5" transform="translate(383 142)" fill="none" stroke="#d42b45" stroke-linejoin="round" stroke-width="2"/>
  </g>
</svg>
