<svg xmlns="http://www.w3.org/2000/svg" width="44" height="44" viewBox="0 0 44 44">
  <g id="icon7" transform="translate(432.265 -219.335)">
    <rect id="Rectangle_288" data-name="Rectangle 288" width="44" height="44" transform="translate(-432.265 219.335)" fill="none"/>
    <path id="Path_1622" data-name="Path 1622" d="M-395.11,230.641H-418.1c-.572,0-1.077.218-1.077.852v16.451a.854.854,0,0,0,.851.851h8.6v3.832c0,.508.645.361.914.022l3.233-3.854h10.694a.854.854,0,0,0,.851-.851V231.493C-394.033,230.859-394.537,230.641-395.11,230.641Zm-.683,16.116h-21.891V232.22h17.874l-3.654,3.048-.558,2.066h-12.639v6.52h19.847v-4.037l1.022-1.33Zm-19.216-6.894v-1.309h10.021l-.608,1.309Zm8.8,1.323-.607,1.309h-8.193v-1.309Zm7.876-.926-6.414,2.957-.312-.313,3.768-3.759A1.13,1.13,0,0,0-399.87,239a1.127,1.127,0,0,0,.01-1.593,1.126,1.126,0,0,0-1.593.008,1.13,1.13,0,0,0-.152,1.42l-3.768,3.759-.312-.313,2.971-6.406,3.865-2.847,3.37,3.371Zm3.393-4.4-3.368-3.37,1.124-1.232,3.5,3.5Z" transform="translate(-0.971 -1.523)" fill="#d42b45" fill-rule="evenodd"/>
    <path id="Path_1623" data-name="Path 1623" d="M-398.9,249.713v9.046a3.576,3.576,0,0,1-3.576,3.576h-20.218a3.575,3.575,0,0,1-3.576-3.576V223.911a3.575,3.575,0,0,1,3.576-3.576h20.218a3.575,3.575,0,0,1,3.576,3.576v2.608" fill="none" stroke="#683818" stroke-miterlimit="10" stroke-width="2"/>
    <rect id="Rectangle_289" data-name="Rectangle 289" width="2.3" height="2.3" rx="1.15" transform="translate(-413.745 257.035)" fill="#683818"/>
  </g>
</svg>
