<svg xmlns="http://www.w3.org/2000/svg" width="46.115" height="44" viewBox="0 0 46.115 44">
  <g id="icon8" transform="translate(-225.941 30.289)">
    <path id="Path_1624" data-name="Path 1624" d="M208.394,933.554H192.5l.107-.749a5.3,5.3,0,0,1,5.245-4.549l2.6-.757,2.6.757A5.3,5.3,0,0,1,208.3,932.8Z" transform="translate(44.441 -940.843)" fill="none" stroke="#d42b45" stroke-linecap="round" stroke-linejoin="round" stroke-width="2"/>
    <path id="Path_1625" data-name="Path 1625" d="M201.876,920.535h0a3.363,3.363,0,0,1-3.5-2.662l-.267-2.05c-.232-1.773,1.4-3.323,3.495-3.323h.535c2.1,0,3.726,1.55,3.495,3.323l-.267,2.05A3.363,3.363,0,0,1,201.876,920.535Z" transform="translate(42.955 -934.789)" fill="none" stroke="#d42b45" stroke-linecap="round" stroke-linejoin="round" stroke-width="2"/>
    <path id="Path_1626" data-name="Path 1626" d="M401,218v-4a2,2,0,0,0-2-2H377l-8,8v32a2,2,0,0,0,2,2h28a2,2,0,0,0,2-2V241" transform="translate(-142.059 -241.289)" fill="none" stroke="#683818" stroke-miterlimit="10" stroke-width="2"/>
    <path id="Path_1627" data-name="Path 1627" d="M372,223.4h7.8V215" transform="translate(-145.059 -244.289)" fill="none" stroke="#683818" stroke-linecap="round" stroke-linejoin="round" stroke-miterlimit="10" stroke-width="2"/>
    <line id="Line_257" data-name="Line 257" x2="10.123" transform="translate(236.318 -2.335)" fill="none" stroke="#d42b45" stroke-linecap="round" stroke-miterlimit="10" stroke-width="1.5"/>
    <line id="Line_258" data-name="Line 258" x2="10.123" transform="translate(236.318 2.49)" fill="none" stroke="#d42b45" stroke-linecap="round" stroke-miterlimit="10" stroke-width="1.5"/>
    <path id="Path_1628" data-name="Path 1628" d="M394.425,161.18l-4.074.7.7-4.074,18.845-19.18a1.051,1.051,0,0,1,1.471.12l1.784,1.784a1.051,1.051,0,0,1,.12,1.471Z" transform="translate(-142.577 -160.381)" fill="none" stroke="#683818" stroke-miterlimit="10" stroke-width="2"/>
    <line id="Line_259" data-name="Line 259" x2="3.374" y2="3.374" transform="translate(264.619 -19.057)" fill="none" stroke="#683818" stroke-miterlimit="10" stroke-width="2"/>
  </g>
</svg>
