<svg id="Group_859" data-name="Group 859" xmlns="http://www.w3.org/2000/svg" width="29.629" height="29.629" viewBox="0 0 29.629 29.629">
  <circle id="Ellipse_382" data-name="Ellipse 382" cx="14.815" cy="14.815" r="14.815" transform="translate(0 0)" fill="#03bd02"/>
  <path id="shareicon_line" d="M41.351,39.681a.681.681,0,1,0,0-1.331h-2.3v-1.19h2.3a.681.681,0,1,0,0-1.331H38.223a.757.757,0,0,0-.823.667v5.042a.757.757,0,0,0,.823.666h3.122a.681.681,0,1,0,0-1.331H39.053V39.68h2.3Zm-5.868-3.852a.76.76,0,0,0-.825.666v3.12l-3.2-3.518a.905.905,0,0,0-.659-.267.958.958,0,0,0-.262.036.694.694,0,0,0-.564.631v5.043a.843.843,0,0,0,1.648,0V38.419l3.2,3.519a.94.94,0,0,0,.919.232.692.692,0,0,0,.564-.631V36.492a.758.758,0,0,0-.823-.664Zm-7.514,0a.759.759,0,0,0-.824.666v5.043a.647.647,0,0,0,.4.6,1,1,0,0,0,.842,0,.647.647,0,0,0,.4-.6V36.492a.757.757,0,0,0-.823-.666Zm-2.411,5.043h-2.3v-4.38a.843.843,0,0,0-1.648,0v5.043a.759.759,0,0,0,.824.666h3.121a.681.681,0,1,0,0-1.331Z" transform="translate(-16.886 -24.065)" fill="#fff"/>
</svg>
